<?xml version="1.0" encoding="utf-8"?>
<!-- Generator: Adobe Illustrator 24.0.0, SVG Export Plug-In . SVG Version: 6.00 Build 0)  -->
<svg version="1.1" id="Livello_1" xmlns="http://www.w3.org/2000/svg" xmlns:xlink="http://www.w3.org/1999/xlink" x="0px" y="0px"
	 viewBox="0 0 494 126" style="enable-background:new 0 0 494 126;" xml:space="preserve">
<style type="text/css">
	.st0{stroke:#000000;}
</style>
<g>
	<path class="st0" d="M44.3,76v8.8c0,9.2-4.2,13.8-12.9,13.8H18.2C9.6,98.6,5.3,94,5.3,84.8V42.7c0-9.2,4.3-13.8,12.9-13.8h13.1
		c8.7,0,12.9,4.6,12.9,13.8v6.4H30.4v-8.2c0-1.1-0.8-2-1.9-2h-6.6c-1.2,0-2,1-2,2v45.6c0,1.1,0.8,2,2,2h6.6c1.1,0,1.9-1,1.9-2V76
		H44.3z"/>
	<path class="st0" d="M81.1,98.6H67c-8.8,0-13.1-4.7-13.1-14V42.9c0-9.3,4.3-14,13.1-14h14.1c8.8,0,13.1,4.7,13.1,14v41.7
		C94.2,93.9,89.9,98.6,81.1,98.6z M77.4,38.9h-6.7c-1.2,0-2,1.1-2,2.2v45.3c0,1.2,0.8,2.1,2,2.1h6.7c1.2,0,2-1,2-2.1V41.1
		C79.4,40,78.5,38.9,77.4,38.9z"/>
	<path class="st0" d="M136.2,88.5v10.1h-31.1V28.9h15.3v59.6H136.2z"/>
	<path class="st0" d="M170.4,98.6h-14.1c-8.8,0-13.1-4.7-13.1-14V42.9c0-9.3,4.3-14,13.1-14h14.1c8.8,0,13.1,4.7,13.1,14v41.7
		C183.6,93.9,179.2,98.6,170.4,98.6z M166.7,38.9H160c-1.2,0-2,1.1-2,2.2v45.3c0,1.2,0.8,2.1,2,2.1h6.7c1.2,0,2-1,2-2.1V41.1
		C168.8,40,167.9,38.9,166.7,38.9z"/>
	<path class="st0" d="M194.4,42.9c0-9.3,4.3-14,13.1-14h7.8c5.2,0,8.8,1.7,11,5.1c2-3.4,5.7-5.1,11-5.1h7.8c8.8,0,13.1,4.7,13.1,14
		v55.7h-14.8V41.7c0-1.5-0.8-2.8-2-2.8h-5.7c-1.2,0-2,1.3-2,2.8v56.9H219V41.7c0-1.5-0.8-2.8-2-2.8h-5.7c-1.2,0-2,1.3-2,2.8v56.9
		h-14.8V42.9H194.4z"/>
	<path class="st0" d="M307.9,77.6v6.6c0,9.9-3.9,14.4-13.1,14.4h-25.7V63.7V28.9h25.7c9.2,0,13.1,4.6,13.1,14.4v6.6
		c0,10.1-2.6,13.1-5.3,14.4C305.3,65.7,307.9,67.1,307.9,77.6z M291.4,38.9h-8.5v20.7h8.5c1.3,0,2.8-0.6,2.8-2.1V41.1
		C294.1,39.6,292.7,38.9,291.4,38.9z M291.4,69.9h-8.5v18.7h8.5c1.3,0,2.8-1.2,2.8-2.3v-14C294.1,71.1,292.7,69.9,291.4,69.9z"/>
	<path class="st0" d="M319.2,98.6V28.9H334v69.6L319.2,98.6L319.2,98.6z"/>
	<path class="st0" d="M385.4,42.9v55.7h-14.8V69.9h-10.7v28.7H345V42.9c0-9.3,4.3-14,13.1-14h14.1C381.1,28.9,385.4,33.6,385.4,42.9
		z M370.6,41.1c0-1.2-0.8-2.2-2-2.2h-6.7c-1.2,0-2,1.1-2,2.2v18.4h10.7V41.1z"/>
	<path class="st0" d="M420.9,41.7c0-1.5-1-2.8-2-2.8h-5.7c-1.2,0-2,1.3-2,2.8v56.9h-14.8V42.9c0-9.3,4.3-14,13.1-14h13.1
		c8.8,0,13.1,4.7,13.1,14v55.7h-14.8L420.9,41.7L420.9,41.7z"/>
	<path class="st0" d="M486.1,42.9v55.7h-14.8V69.9h-10.7v28.7h-14.8V42.9c0-9.3,4.3-14,13.1-14H473
		C481.8,28.9,486.1,33.6,486.1,42.9z M471.3,41.1c0-1.2-0.8-2.2-2-2.2h-6.7c-1.2,0-2,1.1-2,2.2v18.4h10.7V41.1z"/>
</g>
</svg>
